<svg xmlns="http://www.w3.org/2000/svg" viewBox="0 0 122 38" width="122" height="38">
  <path fill="#5f259f" d="M20.56.81A19.11,19.11,0,0,0,6.18,33.18,19.11,19.11,0,0,0,34.94,6.18,19,19,0,0,0,20.56.81Zm9.8,17.7a1,1,0,0,1-1,1H24.24V38.53a.85.85,0,0,1-.85.85h-5a.85.85,0,0,1-.85-.85V19.51H12.4a1,1,0,0,1-1-1v-5a1,1,0,0,1,1-1h5.12V8.73A1,1,0,0,1,18.56,7.9l5.08-1.21a.85.85,0,0,1,1,.83v6H29.4a1,1,0,0,1,1,1Z"/>
  <path fill="#5f259f" d="M71.59,19.55A8.93,8.93,0,0,0,63,29h0a9,9,0,0,0,.76,2.7,2.52,2.52,0,0,1,.18.6c0,.1-.09.21-.27.21H59.78a1.33,1.33,0,0,1-1.21-.79,12.27,12.27,0,0,1-.86-3.75c0-6.29,4.89-11.2,11-11.2a10.92,10.92,0,0,1,11,11,11.28,11.28,0,0,1-1,4.63,1.32,1.32,0,0,1-1.25.79H73.56c-.18,0-.29-.11-.27-.21a2.69,2.69,0,0,1,.19-.6,9,9,0,0,0,.8-3.5v-.24A8.93,8.93,0,0,0,71.59,19.55ZM103.85,27h0a9,9,0,0,1-.8,3.5,2.69,2.69,0,0,0-.19.6c0,.1.09.21.27.21h3.85A1.32,1.32,0,0,0,108.23,31a11.28,11.28,0,0,0,1-4.63,10.92,10.92,0,0,0-11-11c-6.1,0-11,4.91-11,11.2a12.27,12.27,0,0,0,.86,3.75,1.33,1.33,0,0,0,1.21.79h3.88c.18,0,.28-.11.27-.21a2.52,2.52,0,0,0-.18-.6A9,9,0,0,1,92.48,29h0a8.93,8.93,0,0,1,8.6-9.39A8.93,8.93,0,0,1,103.85,27ZM51.13,16.7a10.92,10.92,0,0,0-11,11c0,.38,0,.75.06,1.12a10.93,10.93,0,0,0,10.84,9.83c6.1,0,11-4.89,11-11a12,12,0,0,0-.86-3.71,1.39,1.39,0,0,0-1.25-.79H56c-.17,0-.27.1-.24.2a2.66,2.66,0,0,0,.18.6,8.82,8.82,0,0,1,.76,2.68,8.85,8.85,0,0,1-8.35,9.37,8.82,8.82,0,0,1-7.8-5h15a1.21,1.21,0,0,0,1.2-1.2V27.49A10.83,10.83,0,0,0,51.13,16.7ZM118.81,25v7.75a.42.42,0,0,1-.42.43h-2.56a.42.42,0,0,1-.42-.43h0V17.89a.42.42,0,0,1,.42-.43H120a1.21,1.21,0,0,1,1.19,1.21v3A5.26,5.26,0,0,1,118.81,25ZM40.56,17.46H37.85a.43.43,0,0,0-.42.43V32.69a.42.42,0,0,0,.42.43h2.71a.42.42,0,0,0,.42-.43V17.89A.43.43,0,0,0,40.56,17.46Zm0-5.37H37.85a.43.43,0,0,0-.42.43v2.69a.42.42,0,0,0,.42.43h2.71a.42.42,0,0,0,.42-.43V12.52A.43.43,0,0,0,40.56,12.09ZM84.82,12.09H82.11a.43.43,0,0,0-.42.43v2.69a.42.42,0,0,0,.42.43h2.71a.42.42,0,0,0,.42-.43V12.52A.43.43,0,0,0,84.82,12.09Zm0,5.37H82.11a.43.43,0,0,0-.42.43V32.69a.42.42,0,0,0,.42.43h2.71a.42.42,0,0,0,.42-.43V17.89A.43.43,0,0,0,84.82,17.46Z"/>
</svg>
